# Simple hand model
# Generated programmatically
v -18.371111 6.264470 30.133895
v 5.413320 5.835192 55.255021
v 4.306285 7.396408 45.590059
v -17.341873 4.851178 4.358638
v 13.356258 5.952032 15.493969
v -2.784310 4.929474 4.819658
v -2.242475 7.941040 28.493883
v -10.210253 4.849798 59.767595
v -11.512525 6.916050 30.747678
v 1.580738 6.821763 40.936875
v 15.571219 6.376576 36.577927
v -19.869063 5.985694 52.900470
v 22.555939 4.477607 0.321324
v 17.957913 6.071253 37.818712
v 8.008406 7.725373 25.492672
v -5.908694 5.011726 -0.090893
v 17.243870 6.998369 20.869709
v 3.504342 7.841983 41.106112
v -13.029176 6.489874 14.283837
v -9.139922 6.092179 9.552034
v -20.162030 6.462807 25.791049
v 16.767273 5.990901 24.703219
v 15.503410 5.985541 1.819584
v -20.216526 6.100996 29.676487
v 18.207300 6.189467 28.436774
v -22.979813 4.996846 28.283582
v -14.102730 5.372203 52.936777
v 13.712330 6.966438 27.843754
v -19.509354 6.312906 30.902597
v -20.332744 5.214954 59.452734
v 8.233818 7.019463 16.948342
v 18.497105 5.379993 33.826925
v -4.806843 6.080423 53.492940
v 24.292986 5.179740 45.331772
v 4.831389 7.626579 33.919138
v -21.544128 5.268225 23.156894
v -11.363240 4.990209 0.767330
v 4.247783 7.774432 30.948650
v -7.466893 5.569509 55.854186
v -8.400350 8.522970 31.558201
v -0.364701 5.180887 55.936669
v -17.576116 6.133958 26.895591
v 19.874020 5.671174 30.353445
v 7.796728 5.973621 54.705447
v 11.961040 6.830509 44.583470
v -0.150110 6.737909 48.730039
v -4.747955 7.571069 33.010653
v -19.664469 5.585755 25.665540
v -17.031528 6.542168 25.042553
v 20.255285 6.148012 29.769033
v -12.880741 6.566157 34.226643
v 11.894580 7.545171 32.264399
v -13.497596 5.539868 8.381311
v -11.983142 7.311315 27.556245
v -24.437614 4.582389 9.032125
v 14.546659 6.718094 24.407751
v -2.464615 7.312199 17.833643
v 15.626628 7.100687 38.655137
v -11.286644 7.317033 27.453649
v 4.256837 7.435199 39.651255
v 21.660980 6.037576 46.870531
v 3.069933 7.390797 18.735591
v -21.282128 6.123695 21.114643
v -20.125903 4.874220 15.981930
v 20.037511 5.952420 58.722971
v 11.988760 7.621520 36.445329
v 15.239725 5.751587 52.002424
v -20.541476 6.021548 2.747973
v 22.930233 6.565660 25.441105
v 1.649822 7.724894 18.607738
v 9.602620 7.233379 43.948751
v 10.811250 6.852903 40.047372
v 4.504610 7.395185 31.206134
v -15.993533 4.693168 1.556650
v -10.595214 4.929383 58.066926
v -16.546423 6.722928 31.778978
v -8.742715 5.070541 1.726653
v 2.777453 6.801021 46.332780
v -19.120285 5.232324 6.252213
v -6.763973 5.589305 54.045954
v -1.472550 7.012931 21.756807
v -5.957018 5.865694 51.934262
v -17.524300 6.258436 17.616294
v 2.146190 7.211953 14.676172
v -16.424806 6.767836 45.821070
v -14.625988 6.582965 38.671302
v 3.324158 7.919563 37.983282
v -10.868254 6.843179 16.666526
v -10.820264 5.879629 54.493271
v -9.766742 6.342956 9.813212
v 4.758016 7.433210 24.806252
v 24.132233 5.006616 12.457480
v -0.828478 5.090006 4.402707
v 10.666946 7.792042 26.705949
v 20.731667 5.430710 31.548480
v -15.513913 6.078490 30.692132
v -12.621609 6.070462 56.780963
v 12.926675 5.033274 55.909402
v 0.911573 6.784558 51.447855
v 13.963281 5.103441 60.524259
v 5.683694 7.745952 39.956907
v -0.222951 8.387528 33.009129
v 24.091267 4.859853 40.245339
v -14.103516 6.568498 43.094590
v 24.978671 4.891259 44.767950
v 20.869961 4.824519 52.442221
v -6.693823 8.120865 17.874744
v 13.796476 5.934156 58.795931
v -1.959318 6.473232 45.873254
v 11.702022 6.534095 15.669660
v -18.356951 6.932254 27.129653
v -16.247344 6.884133 17.697547
v -23.002126 5.822647 42.883222
v 17.036145 6.464920 36.383454
v 5.363012 5.116548 1.547341
v 1.927997 6.088663 5.942361
v 17.114060 5.854503 48.618074
v 12.852086 5.349300 56.851798
v 8.986224 6.614515 41.987770
v 0.044522 6.538107 11.674318
v 11.282970 6.087212 7.365526
v 10.282325 6.509168 14.071822
v -10.374980 5.874423 49.252393
v -2.041095 7.635256 24.048095
v 22.731947 4.833877 55.334864
v -15.705378 5.446300 53.650957
v 16.978787 6.394347 36.994945
v 5.624886 6.594855 15.669170
v 9.207445 6.037086 6.962561
v -1.581433 7.473846 38.624150
v -2.019652 5.870020 0.746193
v -16.117338 6.441132 35.471330
v 8.314460 6.603205 45.059411
v -23.288063 5.369263 18.939026
v -19.823795 4.312462 34.415389
v -2.463549 7.156202 45.000069
v 14.311595 7.259134 35.063073
v -16.250547 6.528657 28.520461
v 16.189456 6.445375 21.119548
v -2.836732 4.396124 60.388333
v -3.269316 7.560977 43.012976
v -3.238324 6.913322 18.655246
v 5.804884 7.252350 11.127295
v 6.026920 5.915831 54.081684
v 10.551500 5.884105 1.494478
v -8.434919 8.398429 26.440668
v -18.552439 6.669891 18.698802
v 1.233084 6.592076 40.491570
v 3.252966 6.746026 10.511811
v -5.136844 5.245558 4.243165
v -24.463724 4.778807 35.530215
v -22.575972 4.262379 58.380210
v 8.117319 6.700817 38.821043
v 7.397197 5.687970 50.045478
v -17.933323 6.862012 27.659284
v 8.657018 6.959231 46.796281
v 9.572798 7.922690 32.230666
v 18.014240 5.896459 17.516453
v -1.295943 6.501506 56.256214
v 24.036601 5.975245 55.040206
v -16.077807 5.366375 57.086606
v 6.413277 7.072606 41.051656
v -5.915680 7.246493 42.131225
v 9.008775 7.455320 31.959520
v -22.794662 5.395166 38.384687
v 9.663081 6.802671 19.236333
v 3.419340 7.413458 36.625619
v -20.614652 5.605085 27.745268
v 2.927846 6.083029 7.648133
v 5.099445 7.030774 29.321787
v 5.224735 7.189512 22.168091
v -15.908939 6.701942 23.889504
v -4.685126 5.244669 56.517935
v -13.309832 5.336934 58.466412
v -24.651955 4.630002 56.233242
v 14.208914 4.894359 52.225628
v 5.503975 6.797966 48.759744
v -13.702986 7.413567 21.148642
v -19.494539 5.433024 48.301223
v -22.761829 6.118148 33.807276
v 3.070664 8.075803 29.310772
v 3.894132 7.208811 36.386561
v -10.543643 4.636822 57.912466
v -9.883794 5.747066 50.990100
v 8.328811 6.658348 14.689557
v 8.591480 5.312538 5.733026
v -1.432427 6.213632 52.389921
v 14.361458 6.043095 19.883703
v 10.087531 6.620598 48.064203
v 8.460552 8.223277 25.514344
v -20.902744 4.728224 0.735176
v -16.085749 5.614788 52.114613
v -12.727750 5.988689 55.075699
v -19.630392 6.093353 41.430209
v 15.107444 6.184321 44.190906
v -4.475740 4.565379 57.735853
v -18.101831 5.411874 41.984157
v 6.963313 5.767101 50.324078
v 19.128471 5.370657 27.760845
v -9.673473 6.374274 49.935839
v -7.000041 5.849138 8.465983
v 24.710284 4.727714 17.451728
v 0.519945 8.070603 28.576944
v 0.223008 4.836849 53.663502
v 18.201371 5.640210 43.353145
v 22.429162 5.372055 38.200925
v -0.576354 7.245738 20.755981
v -17.626946 5.841301 9.011562
v -12.299155 5.041977 7.414359
v 6.435016 5.022989 4.096262
v -23.518371 5.582587 9.129153
v -8.511414 6.774436 35.893166
v 21.443352 6.042315 38.394121
v 5.333197 7.132944 19.992020
v 22.293131 4.201851 0.250593
v -8.443850 6.210584 20.773670
v -17.189116 6.161599 26.514890
v -14.321257 7.642590 26.950980
v 10.355754 5.591569 7.099657
v -4.277048 6.019532 9.998597
v 3.931871 6.570495 43.087431
v 8.968021 6.266820 56.462333
v -13.051996 5.743934 49.462702
v -12.835527 7.425021 27.711308
v -19.035672 6.055008 50.230569
v 20.505315 5.178850 22.295909
v 1.538960 6.742467 12.881921
v 12.107857 6.137745 51.813577
v -9.992515 5.692294 49.892153
v -0.430948 6.939233 39.108899
v -21.060348 4.998192 26.759781
v 12.921143 6.303412 50.453158
v 2.943738 7.853466 33.210908
v 4.722707 7.413595 36.551234
v 18.103128 5.198302 58.666455
v -8.102428 7.472436 18.214034
v 1.693997 5.505385 6.092434
v 22.831722 5.219912 13.029546
v -14.638439 6.954612 53.201186
v 16.581907 4.922580 7.341219
v 13.935548 5.210151 50.022025
v 24.521803 4.955110 33.362442
v -8.601813 7.656530 32.707400
v -4.024969 8.332940 30.846905
v -14.601599 5.501347 13.407070
v 13.180387 6.193727 12.204315
v 18.344366 5.298772 14.738582
v 19.239503 4.534668 10.851174
v -22.884731 5.023480 19.588372
v 22.796840 5.696565 46.340029
v 15.457828 6.068145 52.276719
v -9.264713 7.588356 36.295051
v -11.958075 5.214366 57.195865
v 20.809042 5.186489 52.302291
v -9.990592 6.360022 11.180441
v -4.114201 7.976115 35.412110
v -0.918254 7.233264 9.798157
v 24.327730 5.105737 17.664982
v -11.579798 7.134875 37.255302
v 5.072198 6.703474 9.726458
v 23.981207 6.128684 5.166267
v -24.558694 5.375442 25.643663
v -13.931757 6.573766 13.156785
v -10.391142 5.391736 53.203335
v -23.720712 5.629565 52.923867
v -6.003186 7.314196 13.796674
v 18.426761 6.131584 35.813943
v -4.576384 8.075401 40.080496
v -22.949442 5.208878 13.317667
v -20.778617 5.622558 40.980678
v -13.063368 5.433999 5.205400
v -6.072713 7.849285 43.669951
v -14.768747 5.942048 32.023503
v 21.341935 5.952388 47.739746
v 6.293413 6.965090 44.446001
v 14.822508 6.506631 19.292948
v -4.192641 7.752844 45.007046
v -10.561652 6.248610 5.773319
v -16.593675 5.473647 10.835228
v 20.521068 5.135572 28.557544
v -15.304614 5.418145 3.209877
v 17.064570 6.498032 15.516026
v -2.757431 9.159153 25.415737
v -1.137734 7.313242 32.123065
v -13.681725 6.105900 52.879617
v -12.345585 5.810106 59.811275
v 14.276376 5.952553 49.782792
v -15.413387 7.368776 29.253949
v 15.148787 6.193886 44.234068
v -9.019854 5.768283 52.471498
v 4.464591 5.988303 18.937585
v 22.761179 5.944849 1.816488
v 6.334082 5.833075 8.845044
v -0.300766 8.627000 34.376697
v 19.460451 5.451729 24.233117
v 8.491999 6.837258 10.910465
v -14.524116 7.835754 33.406185
v 24.000977 5.297080 22.118003
v 13.603321 5.108331 59.523831
v -0.087333 8.209970 32.530268
v 14.943418 4.440569 57.938584
v 11.374659 6.043119 7.186069
v -0.473418 7.934095 35.030130
v -0.866814 7.460514 32.748192
v 14.855495 7.304029 40.659616
v 2.316803 5.408571 54.372647
v -11.079636 7.263703 35.208768
v 2.833534 6.996681 15.869466
v 19.298756 6.331259 32.294639
v 12.861311 7.740988 27.938630
v 23.767367 5.220458 30.393767
v 5.102495 6.449642 8.810223
v -17.738131 6.260737 25.239697
v -22.858774 5.847807 28.493035
v 20.973685 4.248264 9.716460
v -9.160922 7.292233 22.017052
v -8.547179 7.715507 18.335168
v -20.920595 6.273188 10.295709
v 3.392297 5.131183 3.783510
v 9.762482 6.020461 4.097032
v -5.220317 7.072747 14.487412
v 6.179394 6.132696 8.760014
v -18.318357 6.109908 32.677706
v 14.821030 6.334674 20.859532
v -16.209422 5.507116 52.275900
v 9.354349 6.277810 59.320610
v -7.233314 6.914371 13.058165
v 7.135172 5.072814 57.156334
v -0.479365 7.540926 20.823343
v 23.935596 5.787032 20.157528
v -17.640982 5.878608 44.448243
v 6.997920 5.448304 3.633500
v -23.979506 5.145534 46.779426
v -11.594080 6.509743 10.123653
v 5.348873 6.617941 8.870924
v -10.167556 7.308670 27.884615
v -12.080500 7.170514 29.337502
v -15.603072 7.244259 42.074994
v -2.986004 4.650249 5.843103
v 18.520645 5.215627 7.878950
v 8.826511 7.903121 21.596620
v 9.619268 7.776882 41.095689
v -17.158420 5.615240 13.249842
v -23.182284 5.157337 11.425947
v -7.759688 7.638347 32.289068
v -1.595293 6.167676 2.904060
v 21.386094 6.219442 24.582957
v -10.848744 8.302215 42.410397
v -13.031189 6.924596 26.021164
v 17.801992 5.726951 48.751029
v 18.251870 5.772584 49.791741
v -16.889646 5.221901 6.917713
v 1.652373 5.791420 49.380947
v -1.985147 7.612351 39.727444
v 21.653835 5.225603 29.259051
v 6.391879 6.605330 6.563722
v 13.728595 7.113829 33.910135
v 10.155909 6.764553 15.970901
v -2.781577 6.977319 20.298186
v 18.911399 5.709028 41.759179
v -8.524070 7.125145 25.106077
v 8.278964 6.722869 24.143597
v 17.301737 5.269858 54.360225
v 6.138793 6.529501 34.877768
v -16.308776 4.683958 57.781486
v 8.026086 5.234174 2.401786
v 13.360486 7.407158 19.452110
v 18.610370 4.471403 59.110955
v -15.647199 6.089569 18.022137
v 5.180407 7.910877 39.662254
v 14.174200 6.368745 6.611302
v -20.133820 5.573834 49.042890
v 18.553547 5.594276 27.393737
v -8.076680 6.321957 50.002018
v -16.787721 4.678354 4.912319
v 9.625920 6.969875 41.264108
v -21.973331 5.167671 3.478951
v -16.384546 6.069615 43.800282
v 9.949023 5.859939 56.084730
v -9.109234 6.187934 13.042423
v -19.313637 5.381926 26.727617
v 4.242648 6.672479 22.600116
v 17.740708 5.628617 14.296718
v 19.658183 5.452875 55.396315
v 17.326663 4.555648 59.392609
v 25.074872 4.616911 41.989248
v -16.775974 7.307370 30.146403
v 21.315631 5.919193 27.068688
v -22.797868 5.641093 16.939401
v 6.579379 5.120698 3.040023
v -7.390864 6.320345 55.113798
v -10.164039 7.271718 31.553407
v -24.572949 3.848167 32.068648
v -2.005715 7.074372 42.373730
v -9.746395 7.038164 51.116843
v 21.381509 5.606075 12.569918
v 19.214796 5.338210 45.913901
v 18.292504 5.864702 1.610676
v -7.774370 5.460384 4.646083
v 7.148464 6.167419 56.000511
v -10.203380 7.784946 29.387233
v -21.724688 5.908248 37.313004
v 12.127350 7.461326 15.539028
v -21.673136 5.521787 53.237311
v -7.350164 8.016080 30.958365
v 16.234798 6.287920 43.965835
v -11.408675 7.212555 26.302454
v 19.166940 5.318559 14.953465
v -8.408896 5.912118 48.705366
v 10.722879 5.579271 8.613671
v -22.817594 5.606268 28.861034
v 10.867892 7.409169 36.989583
v 18.132058 6.336506 16.083521
v -12.850700 4.647711 57.844736
v -17.074717 5.495201 32.970504
v -10.964381 7.021283 35.971563
v 5.447444 6.637840 12.962685
v -11.830784 5.409165 8.545753
v -12.404404 5.804011 52.970291
v 14.282608 6.570115 22.929916
v -6.093051 7.311838 46.666293
v 15.961639 7.076778 23.637481
v -18.579262 4.511107 1.069072
v -23.155821 5.499413 38.299850
v 23.928801 5.722472 17.014317
v -16.626433 5.369346 52.209486
v -7.083482 5.624972 57.250600
v -19.574698 5.547650 51.413898
v -23.051729 4.853599 25.174161
v 21.965330 5.388883 36.745681
v 11.998618 6.512522 25.996192
v -24.894350 5.599469 41.537809
v 10.066784 5.468809 10.115025
v 16.529103 5.181181 55.418458
v -20.323721 5.208209 52.003447
v 20.714725 4.597730 51.765257
v -13.200477 7.263638 38.138708
v -17.513291 5.940404 11.922627
v -22.997549 5.961574 7.703015
v 5.769444 7.590695 33.086249
v 5.281122 7.821305 11.966649
v 18.859399 5.565598 22.692171
v 9.954307 4.991728 8.555301
v 18.262952 6.080397 19.092006
v 17.171134 6.232087 17.225990
v -4.433942 7.617186 27.272280
v -18.508236 5.833646 15.593016
v -18.452621 5.791781 12.606696
v 16.676130 6.447117 28.073640
v 9.928938 6.548685 16.496464
v 8.374030 7.979927 32.802563
v -8.300106 5.653980 3.994977
v 8.667813 6.488441 54.623772
v -1.803958 6.254637 53.844590
v -19.737970 5.400521 8.997835
v 5.896129 6.654706 9.265582
v 10.136961 7.045958 28.713482
v -22.660266 5.151249 28.611264
v -16.631256 6.829013 30.590649
v -15.296280 6.447209 21.469582
v 15.341155 5.923230 9.649347
v -9.751993 7.667644 34.307225
v -20.773839 5.771693 15.322890
v 21.019382 5.771358 39.889773
v -6.525960 7.243010 39.651701
v -8.256045 6.404717 48.435158
v -17.590905 5.913133 21.793905
v -22.640714 5.319816 0.276920
v 7.542418 8.402216 28.160058
v -4.646854 5.716201 58.574707
v 3.381340 6.778651 11.903031
v 8.917873 7.514404 15.271813
v 24.316244 5.505625 38.099526
v -10.880164 5.517091 49.528184
v 5.854823 5.528489 51.473719
v -22.315248 5.216094 2.816591
v 2.944090 7.272174 18.138828
v 10.559903 5.652831 11.061341
v 23.480078 4.607550 21.442377
v -23.021932 5.332791 28.434156
v 6.326856 5.202112 51.251993
v -13.839024 5.241949 52.551436
v -5.471650 6.985054 11.726153
v 0.641957 7.705878 25.639867
v 15.887223 5.231424 54.207753
v 6.286311 7.551872 27.777780
v -10.025805 6.387854 40.436029
v -12.045307 5.623016 48.018571
v 17.654450 6.105516 4.024478
v 8.823956 7.741162 30.240863
v -16.760671 6.035142 46.199709
v 21.456034 5.508137 8.561777
v -17.461115 4.966750 47.476198
v 15.308952 5.905941 44.332571
v 23.398561 5.009349 14.100298
v -5.380883 6.274371 10.253938
v -24.644412 6.127957 9.149751
v -10.723674 5.594576 55.948290
v -10.754982 7.488607 27.682219
v -13.675365 6.601041 41.371372
v -3.949804 7.523623 39.469825
v -19.864039 6.039847 11.766227
v 7.146908 7.188132 25.651888
v -16.167497 6.315260 16.247607
v 11.473402 6.650537 23.404011
v 16.115515 5.936326 37.184999
v 9.263142 5.225505 55.432032
v 5.963059 6.463696 40.746435
v 21.292006 5.300101 52.355843
v 22.247220 5.789813 48.979507
v -18.615097 6.044995 2.156578
v -16.078750 5.985913 34.182800
v -11.526501 6.082843 18.902828
v -13.907527 6.714524 36.069581
v -16.492142 6.299366 40.889040
v 3.727192 7.133542 26.634831
v -20.088538 4.774137 48.990428
v 0.655432 7.271084 16.417055
v -16.415958 6.355085 29.296256
v -12.050989 7.122494 24.185661
v -11.981178 6.671254 7.569254
v 11.736145 6.394629 45.513198
v 6.094394 7.715277 28.338746
v -4.340985 8.102929 33.095726
v -14.165677 6.349752 46.301196
v -6.580879 8.099038 35.427732
v 2.606532 5.984146 7.047564
v -22.556860 4.456930 9.500177
v 20.545138 6.205520 46.602351
v -13.192380 5.588574 54.383393
v -18.887598 5.520573 36.843277
v -21.725554 5.537356 45.980710
v 6.385294 5.032441 2.671233
v 2.259772 5.794686 1.007051
v -4.713158 7.251154 20.775177
v 18.214831 4.692631 60.022891
v 20.217262 6.249218 18.200526
v 11.662983 5.905835 3.247212
v 17.269253 6.798555 41.498089
v -21.667218 5.805270 46.163767
v 4.926783 7.713184 38.302949
v -6.644562 7.091567 21.735209
v 10.745927 6.732490 22.840272
v 12.314259 5.633337 53.539316
v -2.273426 6.627007 9.434041
v -6.610312 7.676930 27.414155
v 21.408382 5.679607 13.941954
v 25.122524 4.806101 19.439632
v 15.820541 6.120014 26.467910
v 22.364603 4.900670 22.924448
v -13.666961 7.123808 35.122150
v 10.898739 6.359787 15.021979
v -2.768873 5.588960 57.339561
v -11.984349 5.784936 2.083539
v -12.879030 6.481328 23.546436
v 13.430516 7.644872 33.220366
v 19.940696 5.445658 4.549829
v 4.685084 6.620166 49.539767
v -12.294933 6.133533 44.119884
v 14.462261 5.015987 3.770374
v -18.947506 5.154047 39.586332
v 19.548559 4.095257 2.358744
v -2.192551 7.015563 46.387375
v 5.656728 6.300837 7.734676
v 20.884550 5.536967 57.252200
v 14.919416 6.621452 23.251362
v 12.192622 5.594111 18.781485
v -5.688202 7.832216 19.322733
v -8.518778 8.319998 31.526995
v -14.668188 5.766827 7.154420
v -10.320006 7.716562 27.623886
v -1.165180 7.346721 43.277050
v -13.220011 5.378675 55.038025
v -10.391266 6.828923 11.785607
v -11.506693 6.434591 16.747952
v -1.838632 6.603142 12.628501
v -18.419856 5.669760 57.732499
v 16.715404 5.447686 15.537127
v -20.047759 4.397232 50.582705
v -20.806941 5.483063 45.489290
v 7.175700 5.254425 60.691533
v 24.017255 4.866073 54.042490
v 4.041117 6.219929 46.591346
v 16.214536 6.023388 20.518162
v -5.323138 6.680665 32.838342
v -7.594125 6.838863 14.412590
v 22.302889 4.648284 57.073676
v 20.661794 5.227610 9.231238
v 20.226778 6.020596 43.375124
v 4.491215 5.959370 51.752607
v 8.156809 6.826117 53.874225
v 4.059927 7.327129 46.554133
v 15.606372 6.221653 12.793359
v -16.999864 6.316555 15.793281
v 0.762458 7.877198 46.741884
v 3.450416 7.739335 11.557298
v -6.130921 5.604467 47.663771
v 0.814564 6.255929 48.677114
v 24.068719 5.449890 25.091296
v -16.394953 6.721927 33.416144
v -19.938252 7.445290 15.798533
v -17.974868 7.716655 15.176778
v -18.032454 8.432904 14.803046
v -20.818939 8.354536 14.040528
v -19.443807 8.565918 14.862951
v -17.141425 7.516483 14.470264
v -19.174364 8.867947 14.628483
v -17.953080 8.142589 14.156249
v -21.157978 8.381590 14.223637
v -20.733673 8.016808 13.849674
v -19.808481 8.459238 15.379145
v -17.460504 8.526385 14.967989
v -20.262041 8.678568 14.414548
v -19.085068 9.289803 14.066917
v -21.446971 8.730059 14.507021
v -17.732130 9.687754 13.675141
v -19.999903 8.130388 13.688918
v -18.446818 8.802241 14.632409
v -18.127364 9.040731 13.984281
v -18.194556 9.869486 13.718007
v -19.492065 8.542998 13.509502
v -19.076087 8.093826 13.316109
v -20.196247 9.468189 12.656249
v -19.337816 9.161351 13.439521
v -20.272676 9.438281 13.770520
v -20.661143 9.107961 13.419149
v -20.821346 9.462012 13.441268
v -18.901659 9.736839 13.583978
v -19.082890 9.084602 12.137317
v -17.223253 9.742999 12.560955
v -17.195382 9.220003 13.153562
v -20.161941 9.371610 13.167991
v -19.904459 10.201048 12.215582
v -18.434909 9.048157 12.419074
v -15.958379 9.970489 13.475618
v -18.570004 10.117238 12.060005
v -18.348503 9.921378 12.938010
v -17.751965 10.534463 11.989204
v -19.763115 10.727741 12.887257
v -18.877587 10.461266 12.807381
v -18.733117 10.081263 11.957904
v -17.672998 9.348823 12.954876
v -19.422724 9.633047 12.391158
v -16.195555 10.468246 13.135042
v -17.054966 10.126148 11.567183
v -17.977872 10.641981 11.512676
v -18.102840 11.140802 12.602034
v -16.755921 10.971025 12.153432
v -16.370896 10.350269 11.981859
v -19.116118 10.731541 11.307385
v -15.858170 10.684888 11.702023
v -14.456257 10.716877 11.963309
v -17.050678 10.925813 12.142206
v -18.172206 10.166190 12.405812
v -18.779514 10.123021 12.542703
v -15.855476 10.208796 10.083786
v -14.713301 11.798249 11.163103
v -16.959555 10.656584 12.150219
v -18.215331 10.361475 11.224716
v -16.264470 11.489599 10.797877
v -16.495045 11.025247 12.334757
v -15.221930 10.838837 10.566281
v -18.341347 11.300640 11.450699
v -15.264047 11.131751 11.413356
v -14.701739 10.592120 10.944933
v -14.778304 10.756454 11.140108
v -17.589232 10.626427 10.796401
v -17.882730 11.103924 11.140334
v -14.745930 11.134297 10.800985
v -15.260685 11.332183 11.343694
v -14.591057 11.210418 11.176157
v -14.538062 11.023283 9.815525
v -16.251390 11.471624 10.506313
v -18.207745 11.623555 10.042551
v -14.672162 11.037416 10.722586
v -14.082613 10.648771 9.993250
v -17.539052 11.629162 10.223940
v -13.985221 10.286473 11.043964
v -16.231109 11.652066 10.552997
v -15.365076 10.783877 10.607145
v -15.122787 12.042365 10.714341
v -15.101220 11.606509 10.994579
v -14.241764 11.415815 11.196297
v -14.550123 11.389776 10.367752
v -13.579951 10.931296 10.670167
v -15.347914 11.692704 10.598114
v -14.938093 11.480027 9.312122
v -16.652104 11.044277 10.349583
v -15.547021 11.338431 9.919023
v -12.710458 11.241630 10.367572
v -15.233963 11.803121 10.090004
v -14.591131 10.981397 10.118931
v -13.218316 12.018994 10.228764
v -15.899550 12.368300 10.287800
v -15.584320 11.119688 9.999010
v -15.260862 10.733100 9.546699
v -15.241895 11.442305 9.102347
v -13.045395 11.052406 10.976207
v -12.521861 11.299125 9.100659
v -12.973634 10.643603 9.326974
v -12.969898 11.321538 9.234487
v -12.412070 11.465710 9.813456
v -11.552122 12.111585 9.349768
v -14.184683 11.889746 9.421022
v -12.824828 11.368776 9.527657
v -14.077851 11.568819 9.785659
v -12.991219 11.363142 9.761884
v -13.557348 11.265484 9.915318
v -12.587792 12.136091 9.009384
v -12.853300 11.340592 9.474210
v -14.360704 11.838891 9.283020
v -14.845155 11.444034 10.031135
v -12.341054 11.745375 8.546054
v -14.477482 10.524049 9.273981
v -12.433097 11.680094 9.008997
v -13.636245 11.130275 10.149295
v -10.027777 11.787650 9.295212
v -10.480171 10.166862 9.243131
v -10.640996 10.854295 9.836523
v -10.872456 11.115470 9.421972
v -13.520106 10.847105 9.138454
v -10.615476 11.535242 9.871829
v -12.627346 11.756938 9.384766
v -11.686397 11.137290 8.984003
v -12.264800 11.615018 8.726538
v -11.239880 10.658961 9.293396
v -9.555326 10.018374 9.188013
v -11.640299 10.330568 8.290450
v -11.688143 10.730545 8.238081
v -9.729528 11.229962 9.561153
v -8.746872 10.733867 9.294687
v -9.486437 10.747321 8.661085
v -11.359448 11.761366 9.112155
v -10.261950 10.772800 8.731685
v -10.707764 10.046474 9.503501
v -9.042243 10.690346 8.892529
v -10.126761 10.596946 9.194889
v -11.703096 10.881374 8.478059
v -10.759340 10.757658 7.981652
v -11.549221 11.369537 9.339351
v -8.285600 9.643651 9.209560
v -10.540256 10.406666 8.844046
v -8.552262 10.789726 9.479190
v -11.184090 10.244288 9.427494
v -8.411850 11.151979 8.550981
v -9.917007 10.801002 8.716600
v -7.764566 11.008510 9.768371
v -8.991686 10.943686 8.002783
v -8.790071 10.417946 8.610104
v -8.680477 11.063065 8.732422
v -8.320189 10.165190 9.518739
v -10.403512 10.483443 8.719737
v -9.007078 10.529781 8.499825
v -7.711972 10.561178 8.695153
v -7.696847 10.728892 7.104329
v -8.939538 10.073019 9.040110
v -9.104751 10.749440 9.220658
v -7.318362 9.515184 8.717676
v -9.204494 9.529235 9.227193
v -9.765839 10.249878 9.000759
v -9.100368 10.700645 7.952865
v -6.842838 10.432220 8.113458
v -9.278497 9.790708 8.609086
v -9.509016 9.925829 9.313147
v -9.055730 10.245120 9.010750
v -9.753805 10.211754 8.166589
v -8.449008 10.031564 9.129988
v -9.788738 10.121421 8.630348
v -6.268760 9.737337 8.563147
v -5.052692 10.560295 8.889354
v -6.979819 11.410418 9.360741
v -8.023524 10.066251 9.284218
v -5.118919 10.654544 8.979764
v -7.511426 10.018553 8.806240
v -7.989122 10.062634 9.044143
v -5.640978 10.805381 8.475170
v -8.458978 10.122526 8.429375
v -9.006516 10.903383 8.994340
v -7.378462 8.790518 8.790885
v -7.801623 9.126386 9.260936
v -6.046357 9.038339 7.888405
v -6.907665 9.588894 9.167123
v -4.746718 10.187826 9.302513
v -8.010449 9.972988 7.944906
v -7.326631 9.892873 8.120031
v -5.545649 9.502304 9.312858
v -5.678712 9.258184 8.704285
v -7.426365 9.431883 9.406326
v -5.072735 9.712583 8.797935
v -7.104216 9.361115 8.799821
v -2.465904 9.953358 9.538703
v -5.173736 8.932456 9.393216
v -2.661685 10.264729 9.528968
v -5.858978 9.373047 8.123313
v -5.839078 10.551824 9.738323
v -6.784932 9.409736 9.631281
v -4.605953 9.649923 8.820930
v -3.705711 9.047960 9.730757
v -4.531611 8.875799 9.026271
v -4.744392 9.815842 9.340711
v -6.675225 9.621891 9.641403
v -3.514928 9.569635 9.682596
v -2.720773 9.203120 9.247176
v -3.592838 8.695846 9.258573
v -4.433685 9.707423 9.342688
v -3.567330 9.473779 9.488456
v -2.171502 10.068606 9.223523
v -6.233316 9.967654 9.749637
v -3.246609 9.836365 9.328542
v -4.479695 9.386254 8.936716
v -4.296971 9.973261 9.890723
v -2.614186 9.336950 9.978824
v -1.522637 8.751217 9.569206
v -3.460262 9.955764 8.959388
v -1.511104 9.216484 9.238027
v -2.827226 9.266359 9.859832
v -1.780589 9.696488 9.720673
v -4.253303 9.713599 10.346469
v -3.339108 10.142253 9.960301
v -4.181227 9.855407 10.345517
v -0.590847 9.364642 9.798957
v -0.332006 10.731157 10.850409
v -1.282628 9.715988 10.597006
v -0.840074 9.086319 10.387712
v -3.227527 9.779749 11.044481
v -3.340915 10.561329 10.201928
v -0.074946 10.719756 10.005997
v -0.721962 10.749098 10.266618
v -2.943540 10.596896 10.278830
v -2.945516 9.783282 10.153976
v -3.638973 9.705544 10.018185
v -0.143314 9.785987 10.632871
v -0.893350 9.612279 10.518775
v -0.053756 9.802812 11.065496
v 0.102437 9.506025 11.853698
v 0.094997 9.605705 11.030172
v -1.955238 9.669630 11.243941
v -1.439833 10.457357 10.799503
v -1.177309 10.320509 11.427281
v -1.617391 10.527478 10.598768
v 2.083847 10.224467 11.244034
v -0.942964 9.798788 10.245240
v 0.910703 10.023232 10.945866
v 1.332073 10.659974 10.393212
v 0.402399 10.426517 10.513757
v 2.486870 9.281184 11.504729
v 1.436701 10.483424 11.482560
v 0.451877 10.591072 11.411165
v -1.011734 10.921184 10.105002
v -1.341029 11.014846 11.546531
v 0.889806 11.254829 11.376913
v 0.659658 10.608234 11.144711
v 0.563786 10.776537 12.115947
v -1.025542 9.559154 11.599908
v 1.407568 10.372663 11.466748
v 1.797776 10.994114 12.530044
v -0.097547 10.354259 12.187155
v 0.978310 10.230019 12.054381
v -0.393195 11.308039 11.960368
v 1.267036 10.731932 12.409464
v 0.011329 10.868476 11.326821
v 0.200510 11.363852 11.762711
v 1.962138 10.715054 12.590181
v 3.155830 10.226496 12.305900
v 0.856831 11.024878 11.999175
v 2.111283 11.490079 12.063891
v 3.761063 11.276539 11.918754
v -0.166959 11.337043 11.977005
v 4.079645 11.086487 12.420261
v 2.611778 10.718061 12.484652
v 2.996155 11.520944 11.974413
v 0.757803 11.113088 12.022146
v 1.541466 11.453488 11.979192
v 4.737174 11.416659 11.836873
v 0.877290 10.901173 13.121798
v 1.443695 10.037307 13.214996
v 1.322077 10.977829 13.546065
v 4.086125 11.629103 13.069582
v 3.551497 10.948343 12.635538
v 2.131958 12.176547 13.893141
v 3.674301 11.775098 13.112697
v 5.326152 11.976685 14.446773
v 4.785478 11.625106 13.288977
v 4.926281 11.633965 13.756076
v 2.584145 13.192463 13.928077
v 4.213784 12.524651 13.618334
v 2.577889 11.856786 14.019888
v 3.034306 12.744325 12.889456
v 4.208189 13.143915 13.959599
v 5.097710 12.755868 13.892479
v 4.326187 12.818335 13.931823
v 5.629826 12.319490 13.866091
v 3.594861 12.741734 14.620314
v 4.637746 11.994204 14.410494
v 4.249496 11.891235 15.432656
v 6.020146 13.475137 14.435602
v 4.045246 12.546036 14.872287
v 4.525743 11.593244 14.187378
v 4.383731 12.771010 15.429701
v 5.810671 12.952647 15.174222
v -12.772221 5.449083 50.541867
v -12.425851 6.197991 49.937182
v -12.954987 6.979485 50.945805
v -13.191235 6.649050 50.647089
v -12.781709 6.606479 50.891679
v -12.596098 7.303361 50.935229
v -11.789011 5.895760 50.582635
v -10.873438 6.133121 50.599711
v -12.439317 7.296264 51.410352
v -10.823804 7.022821 51.795627
v -12.223225 6.982809 51.343066
v -10.895526 6.838609 50.520856
v -10.267353 6.424103 51.945987
v -11.343435 6.838368 51.933309
v -10.600521 7.563194 52.490928
v -10.805426 7.869699 51.370044
v -11.584920 7.754225 52.187617
v -10.931546 7.488082 52.352733
v -9.923240 6.993934 52.288866
v -12.771112 8.549967 52.778569
v -11.746255 7.781382 53.053327
v -12.794899 7.642368 52.889195
v -12.563552 7.305465 54.235998
v -11.373054 7.087570 53.197865
v -11.947258 7.694871 53.431265
v -12.634978 9.230851 53.863768
v -10.220004 8.572910 53.265808
v -9.564293 8.909583 53.394967
v -12.629615 8.335617 55.334681
v -12.127663 7.404682 54.023205
v -10.514472 8.912357 54.397050
v -10.523163 8.592563 55.016170
v -11.452234 8.238347 54.450926
v -11.813070 10.075984 54.962166
v -13.456671 9.035783 55.408844
v -12.089704 8.231482 54.098531
v -11.426517 7.886653 55.383279
v -11.544527 9.583191 55.031353
v -9.348809 9.129134 55.552993
v -11.227062 8.610620 55.185309
v -11.151088 9.147510 56.236445
v -10.332863 8.752101 57.227355
v -10.655302 8.864896 55.386688
v -9.613188 9.057261 56.692551
v -10.619371 9.639887 56.748508
v -11.486134 8.756782 57.163654
v -12.250098 9.476774 57.482375
v -11.836382 9.137289 57.456797
v -10.360075 9.643938 57.367976
v -11.727000 9.563216 57.558898
v -9.927537 8.814425 56.641166
v -11.009091 9.893348 56.925826
v -11.832871 8.749630 57.046424
v -10.545769 9.110023 57.075134
v -9.566701 9.870610 57.809016
v -12.018849 10.125594 59.169885
v -12.343073 9.107842 58.005531
v -11.284809 9.399640 58.246560
v -11.763789 8.928157 58.056364
v -11.730374 9.076739 57.546967
v -11.215576 9.371855 58.050134
v -8.692528 9.539086 58.866022
v -11.240683 9.103120 58.721567
v -10.266007 8.840393 58.818832
v -9.637453 9.310955 58.943243
v -11.084189 9.762660 59.352415
v -11.935315 9.114782 59.364831
v -9.867715 9.130825 59.608141
v -9.140294 9.394270 60.125558
v -9.577349 9.051022 59.620434
v -10.857197 9.031373 60.289848
v -10.539695 9.612698 60.830252
v -10.815347 9.308476 60.660451
v -11.196297 8.544955 61.016503
v -11.819803 9.573207 61.577547
v -12.511789 8.561612 60.662539
v -9.829802 8.751910 61.627553
v -11.029623 9.023062 61.487279
v -9.567962 9.237903 61.339287
v -10.540661 9.094972 60.956027
v -10.083712 8.200810 61.302184
v -9.612883 8.949490 62.260721
v -9.101945 10.003965 62.826244
v -11.337544 7.215407 62.412361
v -10.761615 8.770653 61.746701
v -8.666334 8.612779 63.206951
v -9.582863 8.652002 62.268075
v -8.803213 8.389356 62.555574
v -10.519262 8.083395 63.067388
v -10.999990 8.290358 62.568626
v -9.281016 8.211408 62.523391
v -10.912925 7.986692 63.602118
v -9.574836 8.272288 64.052830
v -8.714613 8.151803 64.067605
v -8.802408 8.484073 63.373969
v -10.744518 8.060326 63.539374
v -10.502640 8.273602 63.958909
v -8.430461 8.692398 64.934018
v -9.738854 7.612201 63.791799
v -10.132790 7.372375 65.302100
v -10.751997 7.614529 64.623952
v -8.960922 7.900622 64.112924
v -10.180167 8.562798 64.550870
v -11.199621 7.775444 65.326654
v -10.364402 7.266224 65.841993
v -9.592169 7.232501 66.128818
v -9.026291 6.903620 65.715588
v -10.099930 7.736690 65.300842
v -8.420621 7.363026 64.269819
v -11.534283 7.589985 66.031401
v -9.065959 6.665824 65.766870
v -9.637757 7.446563 66.235720
v -10.523770 7.047330 66.564751
v -10.438112 7.006740 66.488968
v -11.014506 6.779067 66.539394
v -9.337125 6.669742 66.948998
v -9.140047 7.030206 66.734726
v -10.257593 7.371013 67.149329
v -10.888892 6.707995 67.601924
v -9.123119 8.026261 66.350327
v -8.885964 7.301338 67.588313
v -8.910922 7.717627 68.430392
v -11.162070 7.146221 68.255121
v -9.695559 7.032014 67.807056
v -9.324540 7.095904 68.612677
v -11.272993 6.869528 68.601172
v -11.466599 6.501162 68.797391
v -9.390036 6.801700 68.452473
v -10.862619 7.543341 68.976897
v -10.092326 7.496434 69.328059
v -10.191552 7.028056 68.321020
v -8.945624 7.342384 68.713979
v -9.884737 6.562717 69.208738
v -10.891848 6.020375 69.452049
v -11.308183 6.620785 70.673189
v -11.020319 8.023726 69.233756
v -10.432112 6.526734 70.011573
v -9.034170 6.162053 69.238514
v -9.521150 6.843044 69.935152
v -7.680554 7.321514 69.688645
v -10.619504 6.752962 70.254045
v -10.082202 7.145721 69.650787
v -10.393832 7.135251 70.567761
v -10.109588 7.064089 70.142948
v -11.751007 6.693314 70.331583
v -9.984305 6.839454 71.962406
v -10.074343 6.825187 70.819342
v -9.824284 7.493610 71.213072
v -10.840429 7.080358 71.555533
v -8.220600 7.653130 71.272871
v -7.974027 7.353676 72.159675
v -11.658318 7.170245 72.329105
v -9.346105 7.376261 72.170052
v -10.227183 7.809893 71.732315
v -11.462001 8.215862 72.958473
v -8.649885 7.423486 72.182655
v -8.688069 7.734251 72.663273
v -8.999324 7.839922 72.788344
v -8.520709 8.292053 72.734426
v -10.277478 8.038506 73.455694
v -9.798730 7.751784 74.665010
v -10.438489 8.320141 73.210206
v -10.932880 7.642415 74.128923
v -9.804100 7.791137 73.559566
v -8.596471 8.127704 75.006249
v -11.144540 8.245113 73.796887
v -9.318165 8.283466 74.378475
v -10.588591 7.983119 74.967238
v -11.252627 8.442856 74.781317
v -10.508332 7.406486 73.981202
v -10.248742 8.272155 74.878371
v -8.450567 8.044846 74.934610
v -10.675685 9.026489 75.481633
v -11.048907 8.897955 74.810916
v -10.152419 10.049757 75.382310
v -10.736126 8.428917 74.339262
v -9.210953 8.873326 75.988932
v -9.098019 9.263743 76.392120
v -10.887873 8.774689 76.453490
v -10.574306 9.464242 75.436858
v -9.342521 9.566015 75.809113
v -9.012520 8.919116 75.446724
v -9.759230 8.856055 76.460104
v -9.983167 8.922336 76.552088
v -10.598890 8.945064 76.757459
v -10.655483 10.086187 77.153004
v -11.470472 9.724050 78.278232
v -8.706765 9.534262 77.093310
v -9.646369 10.901428 76.726925
v -10.768321 10.015473 78.160960
v -10.274103 9.757216 78.584054
v -9.682620 10.331144 76.936671
v -10.093403 10.320791 78.063394
v -11.264031 9.566455 78.608914
v -10.852433 10.791732 78.481141
v -10.993656 10.106070 77.887776
v -9.504319 10.514842 78.801305
v -11.732866 11.161429 78.012866
v -11.188223 9.652429 78.535587
v -8.836113 10.806712 79.013389
v -9.518960 11.576246 79.648835
v -11.283592 11.341871 79.549140
v -9.905809 10.956615 79.855457
v -11.151479 11.632434 80.199143
v -10.785408 9.866706 79.464239
v -11.749006 10.401727 79.371874
v -10.904849 11.304224 81.001465
v -9.659232 11.500204 80.003011
v -10.192680 12.391298 80.410746
v -12.222400 12.103867 80.219272
v -11.503445 11.432075 80.072194
v -11.487715 11.685651 81.063800
v -10.653217 12.017732 80.553087
v -10.625340 11.448250 81.396530
v -10.497515 11.228961 81.287921
v -11.141150 12.126275 80.968553
v -11.713543 12.180965 81.639937
v -9.738150 11.769816 82.027580
v -11.216562 11.141133 82.277948
v -12.101425 11.581508 82.342162
v -10.275234 11.649038 82.307175
v -9.764052 12.097812 82.968666
v -10.680258 12.038947 82.715625
v -11.840675 12.088323 82.328997
v -11.439432 11.449886 82.247184
v -11.229113 12.206697 82.547863
v -10.652447 11.741446 82.417492
v -9.209577 12.558278 84.251482
v -11.060145 12.614836 83.538236
v -11.203953 10.877998 82.379225
v -11.185666 11.830984 83.073950
v -11.638175 11.646105 83.240606
v -12.436996 10.870924 83.059614
v -8.919545 11.638524 84.026867
v -10.458526 12.719594 83.728586
v -9.425828 12.077604 83.570060
v -11.410063 12.067027 84.262313
v -11.476153 12.257883 85.557047
v -9.761356 11.438297 84.769415
v -9.325454 12.146103 84.105160
v -13.614019 12.908577 85.077675
v -11.090044 11.852461 84.499482
v -9.192077 12.016115 85.063976
v -12.036118 12.119680 85.973212
v -12.900646 11.504228 84.419812
v -13.525787 12.199260 85.649421
v -11.237792 11.191986 85.370825
v -10.997410 11.443531 85.944748
v -10.273944 12.225853 85.190067
v -12.427784 12.054728 86.561277
v -9.889725 11.626583 86.806445
v -11.825911 11.839275 86.512628
v -10.784462 10.884647 86.928207
v -12.173155 11.157292 87.162601
v -11.162226 11.625726 86.794143
v -12.351702 11.354595 87.151621
v -12.304366 11.665404 87.713359
v -13.228936 10.556127 87.019937
v -10.541640 10.685709 88.424187
v -11.187319 10.813127 87.383432
v -12.583891 11.221198 86.757554
v -10.733791 10.603008 87.421731
v -10.263385 11.008680 88.463114
v -12.179237 11.630060 87.243657
v -14.080734 11.615852 86.717968
v -12.141552 9.863928 88.227349
v -13.364006 10.324755 88.666479
v -13.635722 10.164156 88.683016
v -11.188864 10.983486 88.611435
v -12.503270 10.150817 89.404713
v -13.357894 9.828093 89.493382
v -12.270204 10.415366 89.993154
v -11.056102 10.837236 89.346392
v -13.005446 10.912045 89.078803
v -13.884584 9.401053 90.026666
v -5.108646 5.660660 50.350609
v -3.932111 6.032551 50.877948
v -4.275596 6.096005 50.768888
v -4.135285 6.077503 50.285629
v -5.037530 6.915407 51.045714
v -4.034932 6.935212 50.346623
v -4.946164 6.257659 51.357776
v -5.244955 6.509665 51.273575
v -2.811695 7.419767 51.031089
v -2.789850 7.179814 51.315276
v -5.185255 6.886967 51.734437
v -2.838621 6.506420 51.281110
v -5.121709 6.724482 51.675997
v -3.830714 7.732713 52.161571
v -1.660991 6.960725 52.343667
v -2.003959 7.098586 51.755997
v -4.867450 7.265135 52.277036
v -4.794830 8.072274 52.641911
v -4.613384 7.659494 52.937307
v -2.259328 7.684176 51.875133
v -2.608183 8.140102 52.717642
v -2.043525 7.467964 53.856677
v -2.938489 8.309538 53.407547
v -3.650471 8.810243 53.971457
v -1.314913 8.412027 53.849913
v -2.981644 8.312852 52.791090
v -1.492502 7.726852 53.565159
v -2.504810 7.440488 53.694341
v -3.451091 8.511756 53.918632
v -3.829215 8.326800 54.497140
v -3.498953 9.370827 54.666799
v -3.490317 9.242764 54.324003
v -4.322238 9.676439 53.664322
v -4.144659 8.154040 54.970821
v -4.731856 9.355120 54.374764
v -3.449309 8.608434 55.382158
v -3.148512 8.951517 54.656388
v -2.410699 8.389026 56.164415
v -3.533690 9.350297 55.828105
v -2.126042 8.754527 56.551685
v -2.235398 9.318625 56.124016
v -1.976068 9.197612 56.309264
v -2.149203 9.016265 56.137052
v -1.577360 9.533832 56.070227
v -3.112865 8.756138 56.231141
v -3.296106 9.730101 56.475679
v -2.870180 9.774960 55.692988
v -3.474350 10.032968 57.941634
v -2.343555 9.501940 57.895973
v -1.621194 9.170804 57.335113
v -1.636599 9.550489 57.341800
v -2.493178 9.642642 56.817493
v -4.210930 9.003602 57.460208
v -3.200901 9.677228 57.004522
v -3.055812 10.059115 57.818614
v -2.771019 8.756155 57.620075
v -4.714921 8.716966 58.175163
v -4.019841 8.486145 58.729569
v -2.299594 9.695143 57.799030
v -3.755431 8.605150 58.172247
v -2.248548 9.334356 58.654017
v -1.745215 9.267888 59.507602
v -4.998104 9.427008 59.316447
v -2.343920 9.321703 59.158466
v -3.480153 9.709682 58.772293
v -3.078437 9.133164 59.901307
v -3.709851 8.694100 59.546988
v -2.283089 9.039405 60.167698
v -1.815233 9.803908 60.547428
v -3.701369 8.979960 59.649913
v -2.576792 9.332220 59.882546
v -2.830638 9.384515 59.472008
v -2.516991 8.491914 59.682035
v -0.810654 8.590165 60.078676
v -3.399629 9.303899 60.449480
v -2.660200 9.125418 61.164470
v -1.659980 8.894359 61.735921
v -4.277355 8.377894 61.211316
v -1.598898 8.995671 61.384345
v -1.831501 9.469072 61.716618
v -3.109075 7.919342 61.034648
v -3.846829 7.787660 61.535356
v -2.501206 8.454673 62.352225
v -1.459593 7.788452 62.472002
v -1.342539 8.119342 62.607307
v -2.311700 8.626749 62.231701
v -2.746951 8.805053 62.810260
v -0.771720 8.159289 62.556805
v -1.145930 9.035280 63.253414
v -1.379105 8.254806 63.269258
v -2.258860 7.716489 63.311895
v -2.837950 8.113741 63.189193
v -1.604463 8.879879 63.473638
v -1.586952 7.575585 63.273175
v -2.632821 7.739212 63.508222
v -3.602900 8.215555 63.813220
v -0.436367 8.472976 64.130529
v -2.398137 7.976364 64.402726
v -0.564930 8.419933 64.538796
v -3.159722 8.562118 64.560472
v -2.653269 7.801035 63.872893
v -1.842336 8.653210 65.012544
v -2.155680 7.846287 64.634244
v -2.953086 7.849961 65.397360
v -0.968334 6.854004 65.296182
v -0.934848 7.807888 64.861267
v -1.672937 7.178119 65.058946
v -2.409935 7.834248 64.926972
v -0.594793 7.175149 66.602952
v -2.502452 7.402858 65.676696
v -2.530547 7.506811 66.352441
v -1.448745 7.848176 66.586559
v -3.144272 6.747905 66.547367
v -0.869058 7.447194 66.405371
v -1.954892 7.245381 66.966016
v -2.401418 7.318684 66.364146
v -0.568089 6.966068 66.026103
v -1.039187 7.604522 67.734383
v -2.285274 6.786371 67.467338
v -1.477494 7.910685 66.756218
v -2.217619 7.215279 68.132475
v -2.809652 7.162521 67.151060
v -3.008181 7.398930 67.200138
v -3.769058 6.762731 67.753574
v -0.737400 7.030448 68.614666
v -2.114799 6.490905 68.083373
v -1.707835 6.070967 67.368774
v -1.551544 6.385869 69.113926
v -0.104549 7.575613 68.683131
v -1.647670 6.466016 69.078407
v -1.477636 7.029261 69.889617
v -2.584692 7.199106 69.413351
v -2.976690 7.012251 69.789091
v -3.461218 5.850792 69.341640
v -3.909948 7.013846 69.246606
v -1.167539 7.353490 69.580318
v -2.664853 6.706012 69.487680
v -1.414732 8.004561 70.425366
v -2.150462 7.293857 70.273526
v -2.534065 7.269606 70.419671
v -1.975400 7.263594 70.234377
v -0.757658 7.741231 70.681075
v -3.191131 6.481064 69.985173
v -2.481728 7.217037 70.216819
v -2.734204 6.817845 70.679997
v -2.960613 7.527760 70.959469
v -1.907097 7.643332 71.228167
v 0.341215 6.954736 71.682156
v -2.411226 6.351021 71.723242
v -2.014862 7.704522 72.348896
v -0.937846 7.798774 72.466724
v -2.512559 7.756747 72.460775
v -2.359142 7.623692 72.759322
v -2.862717 7.963132 71.818427
v -2.253146 7.530258 72.125674
v -2.804982 7.855278 72.214744
v -3.432967 7.710109 72.768477
v -2.398905 7.941663 72.075554
v -2.460411 7.952545 73.162871
v -1.502927 7.915973 73.485294
v -3.341736 8.206611 72.932278
v -3.354675 6.951733 73.319365
v -1.509705 8.113536 73.751592
v -4.611739 7.435722 74.319068
v -1.753367 7.027339 74.615028
v -2.359869 7.415818 74.212626
v -2.784167 8.555005 74.234426
v -3.289054 8.892929 73.331332
v -0.616573 8.457796 73.841325
v -2.770626 8.868018 74.506767
v 0.185997 8.708349 73.926020
v -2.258931 8.866132 74.265486
v -1.013737 8.100043 76.001116
v -2.347548 8.593899 75.094589
v -2.209293 8.816298 75.703543
v -1.169748 8.759057 76.721250
v -0.805426 8.884982 75.077306
v -2.609514 9.873120 75.343168
v -3.502879 9.066786 75.663785
v -2.236694 8.957626 76.360155
v -2.354544 9.868574 75.295823
v -2.105700 9.328617 77.554397
v -2.453260 9.310120 75.644391
v -0.625666 9.455363 75.729012
v -2.362072 9.471512 76.626783
v -3.476629 9.338513 77.671699
v -2.775392 10.292597 77.072175
v -2.771635 9.273121 77.376590
v -1.276551 10.398557 77.093051
v -1.881951 10.142295 77.349117
v -1.197787 9.466802 77.191258
v -0.769825 10.115700 78.592788
v -0.944653 10.733422 77.902031
v 0.004688 10.469470 78.415224
v -3.308139 9.654049 78.225345
v -2.418501 9.931266 77.707388
v -1.433090 10.640012 78.622153
v -2.965980 10.272068 78.959149
v -2.825236 10.175848 79.367544
v -1.190885 10.448315 79.021308
v -3.160616 10.821383 78.820599
v -4.374205 11.305758 78.281179
v -3.686019 11.312824 79.521347
v -0.781313 10.905116 79.347098
v -3.924307 12.036467 79.552405
v -3.239778 10.524608 79.932697
v -2.173487 10.994133 79.581032
v -1.444901 11.387891 79.722172
v -2.600752 10.394614 80.321117
v -1.346727 10.605619 80.645333
v -2.803012 10.714365 80.041182
v -3.831902 11.736556 80.682446
v -4.272022 12.046097 81.063878
v -1.538011 11.721755 81.536205
v -2.007454 12.030476 80.717962
v -1.841808 11.467342 81.324599
v -1.463265 12.261554 81.396996
v -1.532855 12.057102 81.761586
v -3.901160 11.188314 81.459291
v -3.238426 11.506760 81.507725
v -4.006137 12.328602 81.633500
v -4.047009 11.539202 82.035789
v -3.642594 12.168823 82.039713
v -0.542338 11.574765 81.334367
v -3.688042 12.761803 82.137301
v -1.423714 11.880406 83.318962
v -3.415183 11.511379 83.132443
v -2.859972 11.688477 83.254744
v -1.547341 11.577291 82.547997
v -4.016636 11.821099 82.905041
v -1.829922 12.046281 82.220593
v -4.563253 11.792118 84.588475
v -3.752096 11.585914 84.132327
v -3.933848 12.016599 83.592164
v -5.236827 11.731951 83.614001
v -1.931599 12.446867 84.318847
v -2.919697 11.842093 84.341595
v -3.072669 11.083434 84.492653
v -3.079922 12.329995 85.148101
v -3.801229 12.081112 85.095935
v -4.268565 11.655398 84.310295
v -4.511264 12.041971 85.282923
v -2.533557 12.613417 85.289164
v -5.315378 12.130431 84.711422
v -3.458837 12.763099 84.703740
v -2.945961 11.723421 85.296399
v -2.678366 11.736516 85.742105
v -3.749445 10.929650 85.630022
v -4.449421 11.408781 86.095128
v -3.318120 11.698972 86.638770
v -2.469108 12.280680 85.976437
v -1.656350 10.825250 86.113415
v -2.353553 11.491556 86.622258
v -2.753200 11.606495 85.877044
v -2.348130 11.933276 85.902689
v -4.198884 10.949942 86.090159
v -4.457307 11.719578 87.372902
v -3.481578 10.892216 87.661948
v -2.582295 11.517072 88.002271
v -2.580005 11.017813 88.601991
v -2.372022 11.206204 87.241970
v -2.402914 11.261902 88.100651
v -3.687763 10.995845 87.111696
v -2.875589 10.663693 89.808944
v -4.366729 10.935191 88.190723
v -1.868013 10.875508 89.706181
v -2.343948 10.506351 88.446593
v -3.983363 11.255968 90.107805
v -2.631547 10.961246 88.626761
v -2.801400 10.028318 88.477531
v -5.866252 10.694666 89.974038
v -3.929230 10.649625 90.317270
v -4.345601 10.306982 90.703845
v -4.987028 9.597428 90.001634
v -2.758904 10.789206 89.225177
v 3.239282 6.212875 50.286244
v 5.110247 5.758731 49.462824
v 3.049362 6.940223 50.288990
v 3.251873 5.920161 50.968158
v 3.355357 5.753146 50.195824
v 3.404997 7.095830 50.000047
v 3.331837 7.035377 50.155563
v 2.215282 6.500740 51.057732
v 5.065525 5.595994 51.232418
v 3.533781 7.396378 50.832416
v 2.345928 6.523300 51.149080
v 3.278985 7.936228 51.755269
v 2.804453 6.832281 52.161894
v 5.350308 6.605324 51.961070
v 3.149317 7.575916 51.521767
v 5.418993 7.822565 52.546357
v 4.024651 7.286588 51.909561
v 3.516458 8.194284 52.663267
v 5.962305 7.821260 51.648192
v 4.844551 7.715140 52.667121
v 4.544773 7.946929 53.186388
v 4.067027 8.307277 53.372644
v 3.021674 7.387302 53.329080
v 5.048613 8.673756 51.790828
v 5.943962 8.265714 53.529547
v 5.986981 8.042369 53.978061
v 6.427629 7.669979 53.047905
v 3.446172 8.571774 54.088677
v 3.278220 8.730571 53.807752
v 5.885188 8.255118 54.016870
v 3.795062 8.997266 54.184459
v 4.184648 8.298328 54.711621
v 4.014167 8.983443 54.603395
v 4.391937 8.607473 54.104201
v 3.851631 9.436391 54.722254
v 5.159565 8.386691 55.549714
v 4.337437 9.119897 54.752322
v 5.036896 8.963895 54.572890
v 3.769831 8.531238 54.465113
v 2.782277 9.320959 55.829585
v 4.837073 8.816257 55.847647
v 6.355622 9.467862 55.181798
v 5.684246 8.552039 56.026103
v 3.831740 9.450445 56.497505
v 5.051978 9.174861 56.697338
v 4.650397 9.259508 55.571745
v 3.830712 8.955675 56.719917
v 4.120955 8.800735 56.765459
v 5.582276 9.654408 56.539207
v 4.285604 10.322206 57.669249
v 4.146140 9.461422 57.517798
v 4.434732 10.023416 57.149637
v 4.959163 9.577428 57.266792
v 3.313995 9.071484 57.802645
v 5.350675 8.549362 58.272443
v 5.933184 9.588648 58.100426
v 3.923455 9.571260 58.013689
v 5.740578 9.026381 58.116428
v 5.166841 8.833622 59.767416
v 6.016067 8.679116 57.676351
v 5.031856 9.397806 58.958592
v 4.770747 9.118286 58.261520
v 4.285609 10.202030 58.229241
v 6.299304 9.155607 59.287194
v 5.917587 9.629315 58.361192
v 4.884468 9.826960 60.026988
v 6.230821 9.171501 60.076158
v 4.321000 9.475293 59.025865
v 4.315596 8.732149 59.556917
v 6.838748 9.080696 60.698166
v 6.898777 8.991650 59.750789
v 3.733734 9.089704 59.619579
v 4.232295 9.547247 60.151475
v 6.690113 9.603492 61.144613
v 7.459555 9.016880 60.953307
v 4.932010 8.249850 60.413532
v 5.781270 8.587868 61.677374
v 5.969758 8.375597 60.514594
v 4.678896 8.664806 61.493899
v 7.479222 8.623883 61.733683
v 4.607823 9.128809 62.372175
v 5.430578 9.686171 61.968650
v 5.653440 8.005535 62.269159
v 5.710456 7.808218 61.927488
v 4.120734 7.701309 62.102626
v 6.080434 8.550063 63.077152
v 4.050634 9.515561 61.738597
v 6.948665 8.881836 62.453169
v 5.780400 8.287609 62.998143
v 5.566449 9.570167 63.022995
v 4.659929 7.886313 62.265757
v 5.278413 9.066637 63.517842
v 6.143688 8.733760 62.949425
v 6.745794 7.706036 62.836534
v 5.502012 8.891388 63.475192
v 4.577100 8.342633 65.306387
v 6.586036 8.024889 63.464356
v 5.864831 7.001480 64.098748
v 5.564657 8.446041 63.484918
v 4.663593 8.208528 63.596374
v 5.553845 8.967535 64.113770
v 7.015738 7.340098 65.417961
v 5.337279 7.629432 65.342099
v 3.634192 6.759864 64.533710
v 5.322611 7.836296 65.848280
v 7.024468 7.351332 64.957254
v 5.390251 7.225471 64.290275
v 5.350720 7.944240 65.846680
v 4.495813 7.748417 65.299455
v 5.593126 8.404615 65.900190
v 4.756980 6.986749 65.998366
v 6.528304 7.253203 66.112427
v 5.360529 7.498377 66.191280
v 6.542205 6.496693 66.079084
v 5.676410 7.183031 65.929871
v 5.532121 8.133989 66.589353
v 5.474950 6.811982 67.161390
v 4.876185 7.088241 66.857286
v 4.542300 6.966253 67.187888
v 7.043139 7.544078 67.604195
v 5.152712 6.527894 67.970365
v 6.600927 6.675866 67.984399
v 6.306333 7.340936 68.632302
v 7.420537 7.887802 68.355904
v 5.818526 7.277257 67.027412
v 7.074758 6.780673 67.936674
v 8.033942 6.785105 68.609976
v 6.529167 7.104720 67.745440
v 7.162677 6.663806 68.282169
v 4.447808 7.485544 67.825436
v 3.429981 7.161292 68.908822
v 6.903831 6.173505 69.382126
v 5.124569 6.460571 69.620473
v 5.184219 6.154079 69.728132
v 6.571417 6.899386 69.418298
v 5.965820 6.858634 69.258588
v 5.792729 7.764452 69.580799
v 7.207092 6.742120 70.312716
v 6.246381 7.311164 69.503205
v 6.900975 7.140111 69.672186
v 7.249041 7.328319 69.636235
v 7.218511 6.703227 70.578852
v 5.284199 6.720236 71.269709
v 6.926387 7.676655 70.885583
v 7.630155 5.824984 70.368040
v 5.596455 7.875057 71.139792
v 4.732819 7.582329 71.013105
v 6.461492 7.149445 71.619485
v 5.328934 7.056442 70.784868
v 6.422567 7.545111 71.177503
v 5.203872 7.748823 71.184227
v 5.736148 7.783551 71.994813
v 5.828351 7.402753 72.041021
v 6.881400 6.886104 72.417885
v 5.303680 8.042888 72.667050
v 6.086195 7.728353 72.902554
v 5.778425 8.351103 72.813265
v 7.231159 7.018132 72.520310
v 4.619254 8.324527 72.911251
v 4.960152 6.996394 72.506976
v 6.680746 7.344522 73.521426
v 6.408267 8.171691 74.215925
v 5.590276 7.135265 73.279764
v 5.693270 8.138463 74.985893
v 6.753309 8.379116 74.063350
v 6.037257 9.111829 75.114144
v 5.353053 9.106630 74.312874
v 4.453013 8.864102 74.446720
v 6.182778 8.200478 73.456843
v 6.746488 8.497202 74.344669
v 6.636871 8.881755 74.043060
v 6.651586 8.902853 74.228492
v 4.918054 8.682982 74.287473
v 5.125769 8.170840 74.372924
v 3.687053 9.101037 75.296562
v 7.012822 8.135963 75.422719
v 5.773898 9.478355 76.524424
v 5.588219 9.254728 75.665937
v 7.456546 9.466084 76.105989
v 6.462447 9.138943 76.743119
v 6.066704 9.323327 76.435636
v 7.409678 9.344754 76.494540
v 7.145613 9.255764 77.115763
v 4.796152 9.547733 76.702895
v 6.312177 8.641912 76.299741
v 5.039707 9.149009 76.936106
v 5.299872 9.790576 76.938698
v 7.627288 9.918946 77.146039
v 7.399303 9.526238 76.699955
v 5.458153 10.211770 77.826446
v 3.767603 9.153907 77.046891
v 7.342027 10.738035 77.837064
v 4.777135 9.674715 77.923357
v 5.759807 10.626257 78.705370
v 7.284945 9.353617 77.582148
v 4.730086 9.920501 78.598265
v 4.333848 9.891905 78.899167
v 6.239340 9.669595 78.955506
v 6.679754 11.223851 78.840374
v 6.636734 11.173328 78.896572
v 4.701072 10.959602 78.697048
v 4.508265 11.098060 78.964586
v 5.457817 10.588473 79.934049
v 5.585062 10.440502 80.120231
v 4.981973 10.493208 80.727617
v 4.954468 11.198337 79.401093
v 5.011247 10.833297 79.997352
v 5.045846 10.854131 80.597048
v 5.449331 10.545035 80.487818
v 6.210818 11.544921 80.819927
v 7.343704 10.301118 80.449656
v 4.513867 11.495660 80.765342
v 6.374333 11.294503 80.435307
v 6.768982 11.533838 81.104107
v 3.680392 10.556534 80.930401
v 4.777517 11.064683 81.983149
v 6.843342 11.299778 81.566124
v 6.219293 10.963687 81.684112
v 5.698805 11.818261 81.562245
v 4.878283 11.829389 81.547155
v 4.118745 11.801897 81.406037
v 3.958126 11.591408 83.349760
v 6.302840 11.535739 82.310344
v 3.360748 11.150683 82.298547
v 5.993834 11.198795 82.330104
v 6.178129 12.053974 82.616273
v 6.180922 11.939513 82.786476
v 4.769622 11.854967 83.766381
v 6.773269 11.859900 82.994924
v 5.714154 11.849069 83.776385
v 5.949116 11.442589 82.941758
v 3.857750 11.123686 83.566779
v 5.030706 11.950912 83.733220
v 4.855738 11.292738 84.016490
v 4.625208 11.147319 84.490490
v 3.887886 11.269073 84.121367
v 3.733857 11.540290 84.365663
v 5.266226 11.461386 83.601610
v 4.995729 12.074998 84.325404
v 4.875895 12.390844 84.376948
v 4.072650 11.108608 84.747784
v 3.929792 11.492917 84.300701
v 2.810054 12.066426 84.702489
v 6.410353 11.930453 85.206444
v 3.545333 11.846247 86.383943
v 6.164073 12.323945 84.755410
v 4.724168 12.643848 84.889829
v 5.394827 11.916549 85.135923
v 4.985495 12.115395 86.004628
v 2.659940 11.035003 85.659126
v 5.091298 12.047375 86.295485
v 5.588163 11.541469 86.053906
v 5.452111 11.124676 86.720953
v 4.018936 11.593149 86.191629
v 4.008009 11.842133 86.184589
v 5.080497 11.714489 86.917646
v 2.750514 11.597824 87.101043
v 5.172887 11.405879 87.157882
v 4.630658 11.456242 87.924450
v 4.379219 10.651600 87.671389
v 4.402574 11.764672 88.528538
v 4.180417 11.043802 88.061724
v 3.133115 11.379693 87.567369
v 5.154425 11.775956 88.314118
v 2.932094 11.620237 89.194475
v 3.363311 10.841790 88.726212
v 6.686951 10.700379 87.134359
v 3.365373 9.811247 89.623710
v 5.612121 10.714607 89.424264
v 3.687369 9.845612 89.231412
v 5.619443 10.261798 89.602789
v 2.803134 10.235931 88.968875
v 5.224815 10.001597 89.003336
v 4.345674 10.737895 90.057777
v 3.851107 9.122116 89.609291
v 12.066432 6.127422 49.241227
v 11.574267 6.237846 50.823991
v 13.181664 6.281791 51.377677
v 12.967487 6.515307 50.475575
v 9.761848 6.552238 50.237962
v 12.763177 5.852443 51.930134
v 11.586489 5.936602 49.781557
v 11.228089 6.460288 50.811508
v 10.082645 6.047984 51.454221
v 12.547194 7.195794 51.220026
v 13.568171 6.655263 51.862012
v 10.712507 6.883705 51.683043
v 11.903210 7.106238 51.185715
v 12.845044 7.728300 52.134049
v 10.467690 7.694435 51.336523
v 13.219337 7.895364 50.919030
v 14.331459 7.228804 51.918803
v 12.694837 7.671199 52.068777
v 9.983887 8.046220 52.038768
v 12.539563 8.141966 52.905236
v 13.346621 7.583106 52.862044
v 11.525871 7.455326 53.345676
v 12.860567 6.729222 52.571399
v 11.768787 8.536169 53.438763
v 13.457697 8.688466 53.266112
v 11.812707 7.837181 53.611959
v 12.580827 7.947310 54.753613
v 10.500046 8.113024 53.029033
v 14.061666 8.110389 53.767591
v 11.275904 7.452214 55.100052
v 11.991889 8.736194 54.362457
v 13.412817 8.764715 54.581393
v 13.771039 9.174321 54.632786
v 12.090946 8.904953 54.327905
v 13.211223 8.550283 54.545815
v 14.368597 8.564805 55.304447
v 11.399235 9.163137 55.946543
v 11.200214 9.182084 55.483406
v 13.046292 9.755976 55.316940
v 13.416000 9.471937 55.767517
v 14.010350 10.166026 56.642027
v 12.398967 8.504005 56.750307
v 14.541047 8.304030 56.383976
v 12.133811 9.350523 55.867559
v 13.363195 8.554557 56.620861
v 11.856444 9.333426 57.332336
v 13.231711 9.222275 57.123457
v 11.453312 9.404110 57.910179
v 14.036001 8.869604 56.152235
v 10.229413 8.840898 58.030439
v 13.613000 10.443052 56.211425
v 12.722287 8.918378 57.250637
v 13.887203 9.085828 57.514347
v 14.679692 9.749628 57.542642
v 14.525222 9.412235 57.065126
v 11.893307 8.957067 57.790675
v 13.406402 9.449190 59.883160
v 13.128968 8.869565 58.485112
v 14.647944 10.047164 58.522105
v 13.365683 8.816360 58.195609
v 12.127792 9.594630 58.359106
v 13.428699 9.620072 58.053972
v 13.015788 9.534945 58.724676
v 14.239872 9.454154 57.893025
v 15.063768 9.197336 59.396032
v 12.364618 9.903155 60.560559
v 12.854001 9.800461 58.472168
v 13.378391 8.818426 60.112085
v 13.450559 9.412705 59.655504
v 15.008383 9.248936 59.509885
v 15.419986 8.859542 60.658697
v 14.808033 8.143691 59.574960
v 13.401588 8.626480 61.334545
v 15.411976 9.650664 60.586207
v 13.866074 8.198369 60.969930
v 12.221185 9.129055 60.337709
v 13.784474 9.471563 61.090156
v 13.384335 8.045442 61.231985
v 14.808261 7.621687 61.013687
v 14.706878 8.341626 61.571505
v 14.404257 9.747401 61.203765
v 14.242472 9.076175 61.802279
v 12.944073 8.573852 61.119566
v 15.092770 7.738449 62.259936
v 12.928067 8.615750 61.928697
v 11.791386 8.893469 62.688668
v 12.837078 7.697325 62.201635
v 11.871193 7.910228 62.208866
v 13.794570 8.188981 63.117758
v 13.452831 8.397121 62.805118
v 13.831650 8.782148 62.782661
v 14.546400 7.530991 63.649756
v 13.454638 7.971269 63.404153
v 14.083412 8.671344 64.190457
v 14.219184 7.663366 63.669473
v 14.011052 7.573655 63.528881
v 14.704987 7.170291 64.155499
v 11.578542 8.100360 64.525912
v 14.330607 8.430137 63.739934
v 14.407225 8.031908 64.326620
v 14.901543 7.193599 65.641650
v 12.206077 7.451476 64.702416
v 13.440808 7.788859 65.222800
v 14.038745 8.179136 64.867635
v 14.160299 7.316718 64.781279
v 13.081499 6.722473 64.893334
v 14.276851 8.309285 65.796495
v 12.959504 7.051417 64.912226
v 13.559007 7.121371 65.511193
v 14.024278 7.705498 64.851268
v 14.744637 7.152466 65.225603
v 13.727097 7.526059 65.964068
v 13.984287 7.278016 66.730565
v 13.526274 7.431471 66.148682
v 14.115396 6.572844 66.293612
v 14.918906 7.715751 67.071275
v 13.997247 7.906574 66.859461
v 14.634744 7.025023 67.093318
v 12.636995 7.431482 67.394286
v 15.441670 6.500234 67.726544
v 15.803915 6.977921 66.980070
v 14.390489 6.825689 68.361919
v 15.943964 7.573763 67.991037
v 13.873894 6.803687 67.745044
v 14.684872 7.478073 68.608873
v 14.090609 6.919197 69.318367
v 14.047529 7.244412 68.581601
v 15.064835 7.833939 68.408306
v 14.153564 6.935990 68.640414
v 14.549133 6.770307 67.572326
v 13.722380 7.498662 69.216798
v 13.575953 6.603670 68.475307
v 13.769064 7.142194 68.020177
v 13.815884 7.451399 69.446400
v 15.002015 6.278438 69.577031
v 12.723449 7.008664 69.693299
v 13.779901 6.864179 70.359569
v 15.807161 6.643013 69.896416
v 15.707188 7.346779 70.222515
v 14.185695 6.912847 69.829301
v 15.843599 6.987664 70.100555
v 14.373274 7.320509 70.508748
v 14.591304 7.832953 70.806619
v 13.397426 7.187177 71.744315
v 13.755066 8.184722 71.525222
v 15.431048 6.116237 71.678351
v 15.411591 8.132448 71.237452
v 15.558741 7.757514 70.821383
v 14.878352 8.202840 71.097360
v 13.318635 7.503826 71.790520
v 13.807773 7.183270 72.058433
v 14.863257 7.920659 72.198259
v 13.274142 7.132796 72.289874
v 12.397669 7.330435 73.040054
v 13.070093 7.367790 72.918335
v 13.850059 7.278685 73.128555
v 14.129750 7.243602 72.561503
v 15.078714 7.670255 72.747831
v 14.715407 6.739793 73.272311
v 15.704727 8.171103 72.569817
v 13.619392 8.251137 73.146472
v 15.019184 8.090699 73.399029
v 12.922650 8.698001 74.211015
v 13.582321 7.910358 73.366430
v 15.273421 7.546331 74.533028
v 14.055044 7.882563 73.956038
v 15.346999 7.859600 73.678954
v 12.336792 8.978871 74.680484
v 14.789364 8.382202 74.375402
v 12.727182 8.533897 74.954814
v 13.932343 9.147822 75.338018
v 13.582605 8.676915 74.338465
v 12.235033 9.168316 74.883367
v 13.560788 7.809643 75.942488
v 13.970193 8.836847 75.335987
v 14.717917 9.390689 75.415920
v 14.531369 8.739151 76.666850
v 13.938290 10.075976 76.025647
v 14.920623 8.721012 76.294998
v 13.997658 9.590306 76.179600
v 13.162926 9.597464 76.178663
v 15.872285 9.187573 76.232188
v 13.766845 9.573425 75.956229
v 14.462127 9.134535 76.492350
v 14.941987 8.940630 76.519120
v 14.139184 8.924700 76.564636
v 13.401701 9.642291 76.635317
v 14.939127 9.072014 77.000920
v 14.239755 10.127987 77.444108
v 15.001473 11.165138 78.261092
v 12.075604 9.967221 78.435459
v 13.061776 10.371814 77.287119
v 14.213691 10.361839 78.149392
v 15.009139 10.284247 77.808158
v 14.370646 9.920543 78.456916
v 13.069914 10.611677 78.928152
v 13.754457 9.731397 78.046539
v 13.909698 10.791230 78.192305
v 13.073076 11.676630 78.755168
v 14.267964 11.119182 79.142395
v 13.367833 11.181286 79.163361
v 12.724298 11.434516 79.071029
v 13.907044 10.452879 78.380964
v 14.308703 11.104262 78.770912
v 12.797127 11.544692 79.425735
v 14.415175 11.033289 80.018741
v 13.640000 11.196464 79.669859
v 13.090137 11.699636 80.475584
v 13.556464 12.126071 80.725950
v 12.211566 11.610658 79.852542
v 11.008387 11.619036 80.712810
v 14.422561 11.413594 80.019417
v 14.643354 11.884656 80.769171
v 13.549735 10.907870 80.916587
v 11.341140 10.761683 80.920006
v 11.909315 11.676725 81.008274
v 14.465948 12.421818 81.368879
v 12.729576 12.404487 81.018737
v 11.879566 12.196476 81.172479
v 11.937737 11.518700 81.076459
v 13.377834 11.149590 81.872909
v 13.543032 12.677060 81.564998
v 13.653148 11.918988 81.933454
v 15.284178 12.516596 83.048649
v 11.579383 12.665285 82.621047
v 14.585230 10.638380 82.290947
v 13.189914 12.377254 82.830946
v 14.096267 11.165217 82.860868
v 11.741899 11.567723 82.867033
v 14.018598 11.440239 83.851965
v 14.485860 11.812890 83.721023
v 13.642201 11.525039 84.442495
v 13.082077 10.926944 84.100035
v 12.397497 11.761401 83.798650
v 13.437058 12.408689 83.817450
v 12.590828 11.932811 85.006750
v 11.187019 11.140838 84.115200
v 13.762586 12.054125 84.480675
v 14.023132 11.068081 85.393291
v 14.241382 11.306817 84.704510
v 13.446365 11.143319 84.831629
v 11.366514 11.260390 85.131998
v 14.577705 11.590797 84.384886
v 12.834000 11.774618 85.813250
v 13.538585 11.407171 86.359968
v 13.658962 11.629389 85.576495
v 13.578423 11.789857 85.890981
v 12.183119 12.176765 85.580053
v 11.277358 11.974595 86.181995
v 12.353588 11.367736 86.516180
v 11.737421 11.690401 85.392084
v 10.972372 12.135894 86.263442
v 12.342368 10.124239 86.519266
v 12.994469 11.643007 87.777338
v 13.546626 11.756548 86.562577
v 11.577367 10.818218 87.668465
v 12.463737 12.480461 86.757097
v 12.801850 11.171129 87.653728
v 11.401064 10.890422 88.169544
v 11.476143 10.798166 87.621659
v 12.965774 10.905246 87.819370
v 12.702082 11.426676 88.099948
v 12.494999 10.578069 87.997359
v 11.363137 10.890020 88.227715
v 11.660287 11.097533 88.446680
v 11.287311 11.897479 88.465602
v 11.392056 10.225215 88.825280
v 12.496973 10.134665 89.290432
v 12.208464 9.763303 89.112021
v 11.970948 10.315020 90.210570
v 13.303413 10.507924 89.735768
v 11.651719 10.424127 88.933875
v 12.238752 10.768081 89.651699
v 11.064087 9.927038 89.814693
v 10.807673 10.331215 90.492782
